<?xml version="1.0" standalone="no"?>
<!DOCTYPE svg PUBLIC "-//W3C//DTD SVG 20010904//EN"
 "http://www.w3.org/TR/2001/REC-SVG-20010904/DTD/svg10.dtd">
<svg version="1.0" xmlns="http://www.w3.org/2000/svg"
 width="512.000000pt" height="512.000000pt" viewBox="0 0 512.000000 512.000000"
 preserveAspectRatio="xMidYMid meet">
<metadata>
Created by potrace 1.14, written by Peter Selinger 2001-2017
</metadata>
<g transform="translate(0.000000,512.000000) scale(0.100000,-0.100000)"
fill="#000000" stroke="none">
<path d="M2378 5115 c-2 -1 -39 -5 -82 -9 -44 -4 -82 -8 -85 -10 -3 -2 -31 -7
-61 -11 -133 -16 -474 -108 -504 -136 -6 -5 -16 -9 -23 -9 -8 0 -44 -14 -81
-31 -324 -147 -563 -312 -801 -550 -58 -57 -83 -85 -169 -186 -10 -12 -27 -34
-38 -48 -10 -15 -33 -46 -50 -69 -128 -171 -262 -426 -337 -641 -29 -80 -74
-237 -81 -278 -3 -15 -7 -35 -10 -45 -3 -9 -7 -34 -11 -56 -3 -21 -7 -41 -9
-45 -2 -3 -7 -33 -11 -66 -3 -33 -10 -89 -15 -125 -12 -96 -9 -409 6 -530 37
-305 116 -575 243 -830 76 -151 90 -175 176 -305 373 -559 957 -952 1610
-1084 213 -43 300 -50 555 -47 289 4 460 29 715 107 591 181 1116 592 1432
1119 169 283 289 604 339 910 38 235 40 573 5 805 -45 295 -136 561 -288 847
-35 64 -63 118 -63 120 0 2 9 4 20 5 37 3 124 50 163 88 46 44 94 142 100 206
26 268 -250 458 -490 338 -51 -26 -127 -100 -143 -140 -7 -16 -16 -29 -20 -29
-3 0 -31 23 -61 51 -233 217 -555 418 -840 523 -180 66 -394 120 -559 142 -25
3 -56 8 -70 10 -27 6 -456 14 -462 9z"/>
</g>
</svg>
