<?xml version="1.0" standalone="no"?>
<!DOCTYPE svg PUBLIC "-//W3C//DTD SVG 20010904//EN"
 "http://www.w3.org/TR/2001/REC-SVG-20010904/DTD/svg10.dtd">
<svg version="1.0" xmlns="http://www.w3.org/2000/svg"
 width="522.000000pt" height="522.000000pt" viewBox="0 0 522.000000 522.000000"
 preserveAspectRatio="xMidYMid meet">
<metadata>
Created by potrace 1.14, written by Peter Selinger 2001-2017
</metadata>
<g transform="translate(0.000000,522.000000) scale(0.100000,-0.100000)"
fill="#000000" stroke="none">
<path d="M2429 5006 c-2 -2 -35 -6 -74 -10 -246 -21 -508 -93 -762 -209 l-93
-42 -1 -65 c-1 -36 -3 -74 -4 -85 -1 -11 -3 -56 -4 -100 -2 -126 -21 -70 -21
65 0 63 -3 125 -6 136 -5 20 -8 21 -32 8 -57 -29 -226 -140 -229 -150 -2 -6
48 -46 112 -90 114 -78 154 -117 73 -70 -142 81 -223 126 -229 126 -9 0 -132
-94 -148 -113 -7 -10 -10 -17 -5 -18 5 0 20 -2 34 -4 14 -2 95 -8 180 -15 85
-7 162 -16 170 -21 9 -5 -81 -9 -220 -9 l-235 0 -100 -106 c-130 -139 -198
-226 -182 -236 7 -4 2 -10 -14 -17 -35 -13 -68 -54 -128 -160 -86 -150 -170
-335 -217 -479 -41 -122 -44 -141 -35 -177 12 -46 18 -92 26 -190 22 -258 37
-276 240 -301 82 -9 118 -22 158 -55 41 -33 70 -84 82 -139 20 -92 58 -140
112 -140 55 0 161 76 358 254 139 127 198 177 261 222 138 99 275 137 341 95
42 -27 56 -55 87 -185 31 -128 57 -179 102 -201 77 -36 120 -8 269 180 138
173 326 351 463 440 220 142 428 198 538 144 51 -24 68 -50 124 -186 42 -102
81 -160 100 -148 19 12 10 -16 -41 -123 l-51 -107 -58 61 c-31 34 -82 93 -113
132 -82 103 -101 115 -163 109 -102 -10 -283 -126 -499 -318 -297 -264 -447
-388 -502 -414 -34 -16 -59 -20 -110 -16 -35 2 -83 51 -143 146 -122 193 -163
229 -245 220 -179 -19 -440 -258 -780 -710 -62 -82 -152 -208 -200 -280 -49
-71 -101 -146 -116 -166 -34 -43 -30 -66 27 -162 188 -314 488 -614 814 -813
277 -168 570 -274 905 -326 183 -28 510 -30 690 -4 133 19 305 58 359 80 33
14 38 13 108 -21 170 -82 190 -87 338 -86 149 1 214 13 335 64 159 66 274 165
331 284 29 59 34 82 35 145 1 122 -20 180 -82 224 -22 15 -22 15 46 93 273
311 469 684 554 1054 187 811 -34 1633 -598 2229 -34 36 -75 80 -92 98 -35 38
-44 39 -64 8 -14 -21 -20 -22 -58 -15 -23 4 -564 8 -1202 7 -1253 -1 -1360 0
-1354 6 2 2 51 7 109 10 278 17 475 31 580 41 25 3 89 7 144 11 54 3 106 7
115 9 9 1 72 6 141 10 69 3 132 8 140 10 8 2 65 7 125 10 61 4 124 8 140 10
17 2 66 7 110 10 199 13 233 16 285 20 30 2 91 7 135 10 44 4 96 8 115 10 19
2 80 7 135 11 55 4 107 8 115 10 8 1 22 3 30 4 23 1 -25 39 -130 104 -321 199
-686 321 -1067 357 -166 15 -172 14 -368 -99 -221 -127 -721 -418 -790 -461
-62 -38 -115 -64 -115 -56 0 2 96 68 213 146 116 79 232 157 257 174 25 17
132 91 238 164 105 73 192 134 192 137 0 5 -5 5 -11 0z m2356 -1387 c8 -25 15
-19 -110 -104 -96 -65 -295 -216 -400 -304 -77 -64 -83 -53 -26 55 90 168 75
157 431 335 88 44 97 46 105 18z m-582 -306 c-3 -10 -41 -84 -85 -164 l-79
-146 -90 -69 c-50 -38 -118 -90 -152 -116 -92 -69 -178 -111 -244 -116 l-56
-5 6 32 c4 17 25 70 47 117 35 73 44 84 61 79 35 -11 117 39 287 175 141 112
298 230 308 230 2 0 1 -8 -3 -17z"/>
</g>
</svg>
