<?xml version="1.0" standalone="no"?>
<!DOCTYPE svg PUBLIC "-//W3C//DTD SVG 20010904//EN"
 "http://www.w3.org/TR/2001/REC-SVG-20010904/DTD/svg10.dtd">
<svg version="1.0" xmlns="http://www.w3.org/2000/svg"
 width="225.000000pt" height="225.000000pt" viewBox="0 0 225.000000 225.000000"
 preserveAspectRatio="xMidYMid meet">
<metadata>
Created by potrace 1.14, written by Peter Selinger 2001-2017
</metadata>
<g transform="translate(0.000000,225.000000) scale(0.100000,-0.100000)"
fill="#000000" stroke="none">
<path d="M974 2019 c-4 -7 -8 -36 -9 -65 l-2 -54 38 0 c78 0 118 44 86 94 -21
31 -98 48 -113 25z m80 -45 c8 -21 -11 -44 -35 -44 -14 0 -19 7 -19 30 0 25 4
30 24 30 13 0 27 -7 30 -16z"/>
<path d="M899 2013 c-1 -5 0 -25 1 -45 1 -35 -1 -38 -24 -38 -21 0 -26 5 -26
24 0 26 -26 60 -40 51 -9 -6 -1 -82 11 -106 6 -13 18 -16 46 -12 59 8 73 19
73 59 0 38 -15 74 -30 74 -6 0 -10 -3 -11 -7z"/>
<path d="M1129 1993 c-13 -36 -11 -79 6 -93 8 -6 32 -14 55 -17 42 -6 44 -3
40 45 -1 13 4 30 11 38 16 20 4 30 -54 42 -46 9 -49 9 -58 -15z"/>
<path d="M710 1977 c-53 -21 -69 -42 -32 -42 10 0 25 -16 35 -37 10 -21 25
-38 33 -38 17 0 18 16 3 59 -10 28 -8 33 12 49 35 29 9 33 -51 9z"/>
<path d="M1404 1939 c-40 -65 -49 -98 -31 -116 13 -13 17 -12 33 10 l19 25 20
-42 c17 -35 62 -73 73 -62 2 2 -4 21 -12 41 -27 63 -20 73 58 90 27 6 28 7 13
22 -11 11 -32 16 -67 15 -47 -1 -63 9 -40 23 14 9 -7 35 -26 35 -8 0 -26 -19
-40 -41z"/>
<path d="M603 1924 c-9 -25 33 -105 52 -98 20 8 19 15 -7 69 -23 48 -35 55
-45 29z"/>
<path d="M513 1890 c-65 -37 -76 -53 -34 -48 27 2 34 -2 54 -34 16 -28 26 -35
36 -28 13 7 12 14 -4 49 -17 39 -17 42 -1 60 29 31 3 32 -51 1z"/>
<path d="M383 1795 c-47 -45 -47 -46 -18 -40 26 5 34 1 53 -24 14 -19 28 -28
37 -25 20 8 19 20 -7 55 -19 25 -20 33 -10 49 23 38 -7 29 -55 -15z"/>
<path d="M1562 1782 c-21 -30 -29 -49 -22 -56 12 -12 55 26 76 65 12 24 12 27
-5 32 -12 3 -27 -9 -49 -41z"/>
<path d="M995 1789 c-54 -35 -196 -111 -200 -107 -2 2 32 28 77 58 92 63 86
71 -32 41 -111 -28 -171 -56 -178 -83 -5 -19 -6 -20 -12 -4 -5 15 -15 11 -77
-31 -73 -49 -78 -58 -33 -66 16 -3 10 -5 -17 -6 -36 -1 -49 -8 -83 -43 -22
-23 -40 -45 -40 -48 0 -4 -12 -20 -26 -36 -14 -16 -44 -67 -67 -113 -38 -78
-41 -90 -39 -159 3 -111 15 -129 105 -147 21 -4 32 -16 47 -50 14 -32 25 -45
39 -45 11 0 54 28 96 63 174 142 206 149 242 52 29 -78 50 -74 142 23 89 94
144 135 210 157 66 22 91 10 129 -59 28 -52 29 -56 14 -86 l-15 -31 -47 51
c-25 27 -49 50 -54 50 -22 0 -95 -50 -196 -135 -63 -53 -124 -100 -135 -105
-28 -11 -47 2 -88 58 -19 27 -44 52 -56 55 -26 7 -92 -36 -153 -99 -64 -67
-218 -275 -218 -294 0 -31 129 -178 225 -255 148 -120 400 -174 620 -132 62
11 77 11 125 -4 165 -50 346 65 295 187 -15 36 -10 47 61 139 42 55 95 182
114 272 52 249 -16 505 -187 701 l-29 32 -383 0 c-212 0 -382 2 -380 4 2 2 31
7 64 10 57 5 91 8 285 21 47 3 101 8 120 10 19 2 72 7 118 10 45 4 82 11 82
15 0 11 -130 78 -196 100 -49 17 -119 32 -209 44 -19 3 -41 -3 -60 -15z m715
-436 c-1 -7 -27 -28 -132 -107 -43 -32 -48 -24 -15 24 26 39 148 108 147 83z
m-190 -109 c0 -4 -11 -27 -25 -53 -37 -67 -195 -165 -195 -120 0 17 40 69 53
69 7 1 44 25 82 55 67 52 85 62 85 49z"/>
<path d="M1640 1777 c0 -7 5 -18 12 -25 9 -9 6 -18 -15 -40 -47 -49 -26 -73
27 -31 18 14 35 19 50 15 38 -10 38 5 -2 41 -49 45 -72 58 -72 40z"/>
<path d="M222 1708 c-7 -7 -12 -18 -12 -26 0 -24 71 -162 81 -157 24 16 27 42
9 83 -21 47 -19 48 38 28 39 -14 41 -14 55 8 15 22 14 23 -51 43 -106 33 -107
34 -120 21z"/>
<path d="M1718 1644 c-21 -19 -38 -37 -38 -40 0 -7 33 -57 51 -77 16 -18 18
-17 39 12 12 17 30 31 41 31 29 0 23 30 -15 73 -19 20 -36 37 -38 37 -1 0 -20
-16 -40 -36z"/>
<path d="M1870 1428 c-67 -25 -63 -22 -55 -48 5 -15 13 -20 33 -18 22 2 26 -1
24 -17 -13 -89 -13 -103 -3 -109 6 -4 11 -4 11 1 0 4 7 16 14 26 11 14 18 16
41 7 24 -9 32 -7 52 11 29 28 29 56 2 120 -25 57 -35 59 -119 27z"/>
<path d="M1922 1219 c-42 -9 -44 -11 -44 -52 0 -54 11 -80 30 -71 10 4 33 9
52 10 19 1 38 3 41 3 8 1 0 82 -11 100 -9 18 -25 20 -68 10z"/>
<path d="M1903 1072 c-14 -9 -19 -67 -9 -99 13 -40 111 -47 111 -8 0 16 -8 21
-37 23 -29 2 -38 8 -38 22 0 14 9 20 38 22 29 2 37 7 37 23 0 17 -8 20 -45 23
-25 1 -50 -1 -57 -6z"/>
<path d="M1884 918 c-8 -13 22 -38 45 -38 9 0 -2 -10 -23 -23 -22 -12 -41 -27
-43 -33 -8 -25 116 -51 124 -26 3 7 -9 18 -28 26 l-33 14 30 15 c17 9 36 23
43 31 11 13 10 17 -10 24 -43 16 -98 21 -105 10z"/>
<path d="M1851 763 c-8 -15 -3 -20 32 -30 78 -24 119 -9 60 20 -51 26 -81 29
-92 10z"/>
<path d="M1814 671 c-35 -54 -29 -73 26 -87 43 -11 46 -11 67 15 13 14 27 38
32 53 9 24 6 28 -24 42 -52 25 -72 20 -101 -23z m70 -7 c12 -5 13 -10 5 -25
-17 -33 -56 -20 -43 15 7 17 14 19 38 10z"/>
<path d="M1760 569 c0 -6 10 -19 23 -30 l22 -18 -36 -1 c-21 0 -42 -7 -50 -16
-12 -14 -9 -20 16 -40 32 -26 72 -40 82 -30 4 3 -4 17 -17 31 l-23 25 24 0
c39 0 69 11 69 26 0 16 -72 64 -95 64 -8 0 -15 -5 -15 -11z"/>
</g>
</svg>
